# xmcd CD database file
#
# Track frame offsets:
#	150
#	12830
#	29507
#	41875
#	63897
#	81485
#	100820
#	114947
#	132400
#	152047
#
# Disc length: 2312 seconds
#
# Revision: 0
# Processed by: cddbd v1.5.1PL0 Copyright (c) Steve Scherf et al.
# Submitted via: CDex 1.51
#
DISCID=7e09060a
DTITLE=惑星 - 惑星?
DYEAR=2004
DGENRE=Rock
TTITLE0=BLIND SUN
TTITLE1=DICE
TTITLE2=WAYLOSER
TTITLE3=クローバー
TTITLE4=EMPTY SONG
TTITLE5=水のような旅(ALBUM Ver.)
TTITLE6=BADDAFLY
TTITLE7=BLACK FLAG
TTITLE8=TIME
TTITLE9=レイン
EXTD=YEAR: 2004
EXTT0=
EXTT1=
EXTT2=
EXTT3=
EXTT4=
EXTT5=
EXTT6=
EXTT7=
EXTT8=
EXTT9=
PLAYORDER=
